<svg xmlns="http://www.w3.org/2000/svg" xmlns:xlink="http://www.w3.org/1999/xlink" width="1920" zoomAndPan="magnify" viewBox="0 0 1440 809.999993" height="1080" preserveAspectRatio="xMidYMid meet" version="1.0"><defs><g/><clipPath id="3ed613ddba"><path d="M 25 0 L 1432.789062 0 L 1432.789062 512 L 25 512 Z M 25 0 " clip-rule="nonzero"/></clipPath></defs><g clip-path="url(#3ed613ddba)"><path fill="#c6ffad" d="M 1142.007812 446.488281 C 1145.121094 426.832031 1155.070312 370.792969 1170.691406 347.972656 C 1170.691406 347.972656 1175.949219 369.582031 1156.582031 449.3125 C 1156.0625 451.449219 1158.621094 452.980469 1160.242188 451.503906 C 1241.027344 377.964844 1179.28125 295.519531 1179.28125 295.519531 C 1179.28125 295.519531 1090.902344 348.34375 1137.796875 447.09375 C 1138.730469 449.066406 1141.664062 448.652344 1142.007812 446.488281 Z M 1184.332031 477.25 C 1214.699219 460.253906 1302.480469 413.3125 1350.742188 410.132812 C 1350.742188 410.132812 1326.75 440.769531 1196.222656 500.40625 C 1192.730469 502.003906 1193.390625 507.171875 1197.1875 507.800781 C 1385.675781 539.472656 1432.101562 365.1875 1432.101562 365.1875 C 1432.101562 365.1875 1263.84375 300.601562 1178.9375 472.109375 C 1177.246094 475.539062 1180.988281 479.121094 1184.332031 477.25 Z M 320.296875 151.617188 C 367.191406 52.867188 278.804688 0.0429688 278.804688 0.0429688 C 278.804688 0.0429688 217.066406 82.488281 297.847656 156.011719 C 299.472656 157.488281 302.027344 155.972656 301.503906 153.835938 C 282.132812 74.09375 287.394531 52.496094 287.394531 52.496094 C 303.015625 75.304688 312.972656 131.34375 316.085938 151 C 316.425781 153.160156 319.355469 153.589844 320.296875 151.617188 Z M 273.757812 181.773438 C 243.390625 164.78125 155.605469 117.824219 107.355469 114.65625 C 107.355469 114.65625 131.335938 145.277344 261.867188 204.910156 C 265.363281 206.511719 264.691406 211.679688 260.902344 212.3125 C 72.417969 243.996094 25.984375 69.695312 25.984375 69.695312 C 25.984375 69.695312 194.242188 5.128906 279.148438 176.632812 C 280.847656 180.066406 277.09375 183.636719 273.757812 181.773438 " fill-opacity="1" fill-rule="nonzero"/></g><path fill="#45677f" d="M 859.707031 455.128906 L 859.707031 423.101562 C 859.707031 419.859375 857.078125 417.242188 853.859375 417.242188 L 821.867188 417.242188 C 818.636719 417.242188 816.019531 419.859375 816.019531 423.101562 L 816.019531 455.128906 C 816.019531 458.367188 818.636719 460.984375 821.867188 460.984375 L 853.859375 460.984375 C 857.078125 460.984375 859.707031 458.367188 859.707031 455.128906 Z M 799.871094 455.128906 L 799.871094 423.101562 C 799.871094 419.859375 797.257812 417.242188 794.023438 417.242188 L 762.035156 417.242188 C 758.800781 417.242188 756.1875 419.859375 756.1875 423.101562 L 756.1875 455.128906 C 756.1875 458.367188 758.800781 460.984375 762.035156 460.984375 L 794.023438 460.984375 C 797.257812 460.984375 799.871094 458.367188 799.871094 455.128906 Z M 859.707031 397.726562 L 859.707031 365.695312 C 859.707031 362.460938 857.078125 359.835938 853.859375 359.835938 L 821.867188 359.835938 C 818.636719 359.835938 816.019531 362.460938 816.019531 365.695312 L 816.019531 397.726562 C 816.019531 400.964844 818.636719 403.585938 821.867188 403.585938 L 853.859375 403.585938 C 857.078125 403.585938 859.707031 400.964844 859.707031 397.726562 Z M 799.871094 397.726562 L 799.871094 365.695312 C 799.871094 362.460938 797.257812 359.835938 794.023438 359.835938 L 762.035156 359.835938 C 758.800781 359.835938 756.1875 362.460938 756.1875 365.695312 L 756.1875 397.726562 C 756.1875 400.964844 758.800781 403.585938 762.035156 403.585938 L 794.023438 403.585938 C 797.257812 403.585938 799.871094 400.964844 799.871094 397.726562 Z M 424.914062 455.128906 L 424.914062 423.101562 C 424.914062 419.859375 422.296875 417.242188 419.0625 417.242188 L 387.074219 417.242188 C 383.847656 417.242188 381.230469 419.859375 381.230469 423.101562 L 381.230469 455.128906 C 381.230469 458.367188 383.847656 460.984375 387.074219 460.984375 L 419.0625 460.984375 C 422.296875 460.984375 424.914062 458.367188 424.914062 455.128906 Z M 365.089844 455.128906 L 365.089844 423.101562 C 365.089844 419.859375 362.46875 417.242188 359.238281 417.242188 L 327.246094 417.242188 C 324.023438 417.242188 321.402344 419.859375 321.402344 423.101562 L 321.402344 455.128906 C 321.402344 458.367188 324.023438 460.984375 327.246094 460.984375 L 359.238281 460.984375 C 362.46875 460.984375 365.089844 458.367188 365.089844 455.128906 Z M 424.914062 397.726562 L 424.914062 365.695312 C 424.914062 362.460938 422.296875 359.835938 419.0625 359.835938 L 387.074219 359.835938 C 383.847656 359.835938 381.230469 362.460938 381.230469 365.695312 L 381.230469 397.726562 C 381.230469 400.964844 383.847656 403.585938 387.074219 403.585938 L 419.0625 403.585938 C 422.296875 403.585938 424.914062 400.964844 424.914062 397.726562 Z M 365.089844 397.726562 L 365.089844 365.695312 C 365.089844 362.460938 362.46875 359.835938 359.238281 359.835938 L 327.246094 359.835938 C 324.023438 359.835938 321.402344 362.460938 321.402344 365.695312 L 321.402344 397.726562 C 321.402344 400.964844 324.023438 403.585938 327.246094 403.585938 L 359.238281 403.585938 C 362.46875 403.585938 365.089844 400.964844 365.089844 397.726562 Z M 814.792969 161.816406 L 1166.355469 504.785156 C 1175.789062 513.992188 1169.277344 530.019531 1156.105469 530.019531 L 1085.378906 530.019531 C 1081.558594 530.019531 1077.878906 528.519531 1075.144531 525.84375 L 814.792969 271.867188 C 809.082031 266.3125 799.996094 266.3125 794.285156 271.867188 L 656.046875 406.738281 C 650.132812 412.5 650.132812 422.023438 656.046875 427.800781 L 734.960938 504.785156 C 744.40625 513.992188 737.894531 530.019531 724.722656 530.019531 L 654 530.019531 C 650.171875 530.019531 646.492188 528.519531 643.75 525.84375 L 588.847656 472.285156 L 532.445312 417.269531 L 383.40625 271.867188 C 377.703125 266.3125 368.609375 266.3125 362.910156 271.867188 L 102.558594 525.84375 C 99.816406 528.519531 96.140625 530.019531 92.3125 530.019531 L 21.59375 530.019531 C 8.421875 530.019531 1.910156 513.992188 11.351562 504.785156 L 362.910156 161.816406 C 368.609375 156.25 377.703125 156.25 383.40625 161.816406 L 578.605469 352.246094 C 584.304688 357.796875 593.394531 357.796875 599.09375 352.246094 L 794.285156 161.816406 C 799.996094 156.25 809.082031 156.25 814.792969 161.816406 " fill-opacity="1" fill-rule="nonzero"/><g fill="#45677f" fill-opacity="1"><g transform="translate(468.654093, 796.094932)"><g><path d="M 8.5 -2.375 L 8.5 -111.5625 C 8.5 -114.332031 7.9375 -116.273438 6.8125 -117.390625 C 5.695312 -118.515625 3.753906 -119.078125 0.984375 -119.078125 C 0.984375 -126.597656 5.207031 -130.359375 13.65625 -130.359375 C 20.644531 -130.359375 24.140625 -125.804688 24.140625 -116.703125 L 24.140625 -65.078125 L 42.53125 -65.078125 L 42.53125 -109.984375 L 41.734375 -128.578125 C 46.222656 -129.234375 50.640625 -129.5625 54.984375 -129.5625 C 57.097656 -129.5625 58.15625 -128.441406 58.15625 -126.203125 L 58.15625 -16.8125 C 58.15625 -14.039062 58.710938 -12.09375 59.828125 -10.96875 C 60.953125 -9.851562 62.898438 -9.296875 65.671875 -9.296875 C 65.671875 -1.773438 61.453125 1.984375 53.015625 1.984375 C 46.023438 1.984375 42.53125 -2.566406 42.53125 -11.671875 L 42.53125 -52.03125 L 24.140625 -52.03125 L 24.140625 -18.59375 L 24.921875 0 C 20.441406 0.65625 16.023438 0.984375 11.671875 0.984375 C 9.554688 0.984375 8.5 -0.132812 8.5 -2.375 Z M 8.5 -2.375 "/></g></g></g><g fill="#45677f" fill-opacity="1"><g transform="translate(535.295622, 796.094932)"><g><path d="M 6.53125 -18.203125 L 6.53125 -109.59375 C 6.53125 -116.1875 8.769531 -121.328125 13.25 -125.015625 C 17.738281 -128.710938 23.875 -130.5625 31.65625 -130.5625 C 39.4375 -130.5625 45.46875 -128.84375 49.75 -125.40625 C 54.03125 -121.976562 56.171875 -116.96875 56.171875 -110.375 L 56.171875 -18.984375 C 56.171875 -12.390625 53.894531 -7.242188 49.34375 -3.546875 C 44.800781 0.140625 38.640625 1.984375 30.859375 1.984375 C 23.078125 1.984375 17.078125 0.269531 12.859375 -3.15625 C 8.640625 -6.59375 6.53125 -11.609375 6.53125 -18.203125 Z M 22.15625 -109.59375 L 22.15625 -18.984375 C 22.15625 -16.609375 22.976562 -14.695312 24.625 -13.25 C 26.269531 -11.800781 28.476562 -11.078125 31.25 -11.078125 C 34.019531 -11.078125 36.257812 -11.769531 37.96875 -13.15625 C 39.6875 -14.539062 40.546875 -16.484375 40.546875 -18.984375 L 40.546875 -109.59375 C 40.546875 -112.09375 39.6875 -114.035156 37.96875 -115.421875 C 36.257812 -116.804688 34.019531 -117.5 31.25 -117.5 C 28.476562 -117.5 26.269531 -116.804688 24.625 -115.421875 C 22.976562 -114.035156 22.15625 -112.09375 22.15625 -109.59375 Z M 22.15625 -109.59375 "/></g></g></g><g fill="#45677f" fill-opacity="1"><g transform="translate(597.982165, 796.094932)"><g><path d="M 6.125 -82.890625 L 6.125 -109.59375 C 6.125 -116.1875 8.363281 -121.328125 12.84375 -125.015625 C 17.332031 -128.710938 23.367188 -130.5625 30.953125 -130.5625 C 38.535156 -130.5625 44.566406 -128.878906 49.046875 -125.515625 C 53.535156 -122.148438 55.78125 -117.765625 55.78125 -112.359375 L 55.78125 -87.828125 C 55.78125 -85.453125 54.066406 -83.804688 50.640625 -82.890625 C 48.796875 -82.359375 46.945312 -82.09375 45.09375 -82.09375 C 43.25 -82.09375 41.40625 -82.289062 39.5625 -82.6875 C 39.957031 -85.851562 40.15625 -89.21875 40.15625 -92.78125 L 40.15625 -109.59375 C 40.15625 -112.09375 39.296875 -114.035156 37.578125 -115.421875 C 35.867188 -116.804688 33.628906 -117.5 30.859375 -117.5 C 28.085938 -117.5 25.878906 -116.804688 24.234375 -115.421875 C 22.585938 -114.035156 21.765625 -112.09375 21.765625 -109.59375 L 21.765625 -86.4375 C 21.765625 -81.820312 23.28125 -78.59375 26.3125 -76.75 L 47.28125 -63.296875 C 53.207031 -59.609375 56.171875 -53.9375 56.171875 -46.28125 L 56.171875 -18.984375 C 56.171875 -12.390625 53.863281 -7.242188 49.25 -3.546875 C 44.632812 0.140625 38.535156 1.984375 30.953125 1.984375 C 23.367188 1.984375 17.269531 0.300781 12.65625 -3.0625 C 8.039062 -6.425781 5.734375 -10.8125 5.734375 -16.21875 L 5.734375 -40.75 C 5.734375 -43.125 7.445312 -44.769531 10.875 -45.6875 C 12.726562 -46.21875 14.578125 -46.484375 16.421875 -46.484375 C 18.265625 -46.484375 20.109375 -46.285156 21.953125 -45.890625 C 21.554688 -42.722656 21.359375 -39.359375 21.359375 -35.796875 L 21.359375 -18.984375 C 21.359375 -16.609375 22.28125 -14.695312 24.125 -13.25 C 25.976562 -11.800781 28.285156 -11.078125 31.046875 -11.078125 C 33.816406 -11.078125 36.09375 -11.800781 37.875 -13.25 C 39.65625 -14.695312 40.546875 -16.609375 40.546875 -18.984375 L 40.546875 -41.34375 C 40.546875 -46.488281 38.765625 -50.179688 35.203125 -52.421875 L 14.25 -66.0625 C 8.832031 -69.5 6.125 -75.109375 6.125 -82.890625 Z M 6.125 -82.890625 "/></g></g></g><g fill="#45677f" fill-opacity="1"><g transform="translate(660.075499, 796.094932)"><g><path d="M 34.625 -115.515625 C 31.0625 -115.515625 27.5 -113.738281 23.9375 -110.1875 L 23.9375 -18.59375 L 24.734375 0 C 20.242188 0.65625 15.820312 0.984375 11.46875 0.984375 C 9.363281 0.984375 8.3125 -0.132812 8.3125 -2.375 L 8.3125 -109.390625 C 8.3125 -112.296875 7.78125 -114.375 6.71875 -115.625 C 5.664062 -116.875 3.753906 -117.5 0.984375 -117.5 C 0.859375 -120.925781 1.78125 -123.628906 3.75 -125.609375 C 5.726562 -127.585938 8.894531 -128.578125 13.25 -128.578125 C 17.601562 -128.578125 20.703125 -126.398438 22.546875 -122.046875 C 27.691406 -126.398438 32.96875 -128.578125 38.375 -128.578125 C 46.414062 -128.578125 51.953125 -126.070312 54.984375 -121.0625 C 60.398438 -126.070312 66.070312 -128.578125 72 -128.578125 C 85.0625 -128.578125 91.59375 -122.113281 91.59375 -109.1875 L 91.59375 -16.8125 C 91.59375 -14.039062 92.148438 -12.09375 93.265625 -10.96875 C 94.390625 -9.851562 96.335938 -9.296875 99.109375 -9.296875 C 99.109375 -1.773438 94.882812 1.984375 86.4375 1.984375 C 79.445312 1.984375 75.953125 -2.566406 75.953125 -11.671875 L 75.953125 -108 C 75.953125 -113.007812 73.382812 -115.515625 68.25 -115.515625 C 64.15625 -115.515625 60.722656 -113.867188 57.953125 -110.578125 L 57.953125 -18.59375 L 58.75 0 C 54.269531 0.65625 49.851562 0.984375 45.5 0.984375 C 43.382812 0.984375 42.328125 -0.132812 42.328125 -2.375 L 42.328125 -108 C 42.328125 -113.007812 39.757812 -115.515625 34.625 -115.515625 Z M 34.625 -115.515625 "/></g></g></g><g fill="#45677f" fill-opacity="1"><g transform="translate(759.741186, 796.094932)"><g><path d="M 7.125 -2.375 L 7.125 -109.59375 C 7.125 -116.1875 9.363281 -121.328125 13.84375 -125.015625 C 18.332031 -128.710938 24.46875 -130.5625 32.25 -130.5625 C 40.03125 -130.5625 46.0625 -128.84375 50.34375 -125.40625 C 54.625 -121.976562 56.765625 -116.96875 56.765625 -110.375 L 56.765625 -16.8125 C 56.765625 -14.039062 57.328125 -12.09375 58.453125 -10.96875 C 59.578125 -9.851562 61.523438 -9.296875 64.296875 -9.296875 C 64.296875 -1.773438 60.070312 1.984375 51.625 1.984375 C 44.632812 1.984375 41.140625 -2.566406 41.140625 -11.671875 L 41.140625 -49.453125 L 22.75 -49.453125 L 22.75 -18.59375 L 23.546875 0 C 19.054688 0.65625 14.632812 0.984375 10.28125 0.984375 C 8.175781 0.984375 7.125 -0.132812 7.125 -2.375 Z M 22.75 -109.59375 L 22.75 -62.515625 L 41.140625 -62.515625 L 41.140625 -109.59375 C 41.140625 -112.09375 40.28125 -114.035156 38.5625 -115.421875 C 36.851562 -116.804688 34.613281 -117.5 31.84375 -117.5 C 29.070312 -117.5 26.863281 -116.804688 25.21875 -115.421875 C 23.570312 -114.035156 22.75 -112.09375 22.75 -109.59375 Z M 22.75 -109.59375 "/></g></g></g><g fill="#45677f" fill-opacity="1"><g transform="translate(824.405222, 796.094932)"><g><path d="M 34.625 -115.515625 C 31.0625 -115.515625 27.5 -113.738281 23.9375 -110.1875 L 23.9375 -18.59375 L 24.734375 0 C 20.242188 0.65625 15.820312 0.984375 11.46875 0.984375 C 9.363281 0.984375 8.3125 -0.132812 8.3125 -2.375 L 8.3125 -109.390625 C 8.3125 -112.296875 7.78125 -114.375 6.71875 -115.625 C 5.664062 -116.875 3.753906 -117.5 0.984375 -117.5 C 0.859375 -120.925781 1.78125 -123.628906 3.75 -125.609375 C 5.726562 -127.585938 8.894531 -128.578125 13.25 -128.578125 C 17.601562 -128.578125 20.703125 -126.398438 22.546875 -122.046875 C 27.691406 -126.398438 32.96875 -128.578125 38.375 -128.578125 C 51.425781 -128.578125 57.953125 -122.113281 57.953125 -109.1875 L 57.953125 -16.8125 C 57.953125 -14.039062 58.515625 -12.09375 59.640625 -10.96875 C 60.765625 -9.851562 62.707031 -9.296875 65.46875 -9.296875 C 65.46875 -1.773438 61.25 1.984375 52.8125 1.984375 C 45.820312 1.984375 42.328125 -2.566406 42.328125 -11.671875 L 42.328125 -108 C 42.328125 -113.007812 39.757812 -115.515625 34.625 -115.515625 Z M 34.625 -115.515625 "/></g></g></g></svg>