<svg xmlns="http://www.w3.org/2000/svg" xmlns:xlink="http://www.w3.org/1999/xlink" width="1920" zoomAndPan="magnify" viewBox="0 0 1440 809.999993" height="1080" preserveAspectRatio="xMidYMid meet" version="1.0"><defs><g/><clipPath id="3fb392cc5c"><path d="M 23 0 L 1434.914062 0 L 1434.914062 514 L 23 514 Z M 23 0 " clip-rule="nonzero"/></clipPath></defs><g clip-path="url(#3fb392cc5c)"><path fill="#c6ffad" d="M 1143.078125 448.101562 C 1146.203125 428.375 1156.191406 372.136719 1171.867188 349.230469 C 1171.867188 349.230469 1177.144531 370.917969 1157.707031 450.941406 C 1157.183594 453.085938 1159.753906 454.621094 1161.382812 453.140625 C 1242.457031 379.332031 1180.488281 296.589844 1180.488281 296.589844 C 1180.488281 296.589844 1091.789062 349.605469 1138.855469 448.714844 C 1139.792969 450.691406 1142.734375 450.273438 1143.078125 448.101562 Z M 1185.558594 478.976562 C 1216.035156 461.917969 1304.136719 414.808594 1352.570312 411.617188 C 1352.570312 411.617188 1328.492188 442.363281 1197.492188 502.214844 C 1193.984375 503.820312 1194.648438 509.007812 1198.457031 509.640625 C 1387.628906 541.425781 1434.222656 366.511719 1434.222656 366.511719 C 1434.222656 366.511719 1265.359375 301.6875 1180.144531 473.816406 C 1178.445312 477.257812 1182.199219 480.855469 1185.558594 478.976562 Z M 318.394531 152.167969 C 365.457031 53.058594 276.753906 0.0429688 276.753906 0.0429688 C 276.753906 0.0429688 214.789062 82.785156 295.867188 156.578125 C 297.496094 158.058594 300.058594 156.539062 299.535156 154.394531 C 280.09375 74.363281 285.375 52.683594 285.375 52.683594 C 301.050781 75.578125 311.042969 131.820312 314.167969 151.546875 C 314.507812 153.714844 317.449219 154.144531 318.394531 152.167969 Z M 271.6875 182.429688 C 241.210938 165.378906 153.109375 118.253906 104.683594 115.070312 C 104.683594 115.070312 128.75 145.804688 259.753906 205.652344 C 263.261719 207.257812 262.589844 212.445312 258.785156 213.082031 C 69.621094 244.878906 23.019531 69.949219 23.019531 69.949219 C 23.019531 69.949219 191.882812 5.148438 277.097656 177.269531 C 278.804688 180.71875 275.035156 184.300781 271.6875 182.429688 " fill-opacity="1" fill-rule="nonzero"/></g><path fill="#d4c8be" d="M 859.757812 456.773438 L 859.757812 424.632812 C 859.757812 421.378906 857.121094 418.753906 853.886719 418.753906 L 821.78125 418.753906 C 818.539062 418.753906 815.910156 421.378906 815.910156 424.632812 L 815.910156 456.773438 C 815.910156 460.027344 818.539062 462.652344 821.78125 462.652344 L 853.886719 462.652344 C 857.121094 462.652344 859.757812 460.027344 859.757812 456.773438 Z M 799.707031 456.773438 L 799.707031 424.632812 C 799.707031 421.378906 797.082031 418.753906 793.835938 418.753906 L 761.734375 418.753906 C 758.484375 418.753906 755.863281 421.378906 755.863281 424.632812 L 755.863281 456.773438 C 755.863281 460.027344 758.484375 462.652344 761.734375 462.652344 L 793.835938 462.652344 C 797.082031 462.652344 799.707031 460.027344 799.707031 456.773438 Z M 859.757812 399.167969 L 859.757812 367.019531 C 859.757812 363.769531 857.121094 361.140625 853.886719 361.140625 L 821.78125 361.140625 C 818.539062 361.140625 815.910156 363.769531 815.910156 367.019531 L 815.910156 399.167969 C 815.910156 402.414062 818.539062 405.046875 821.78125 405.046875 L 853.886719 405.046875 C 857.121094 405.046875 859.757812 402.414062 859.757812 399.167969 Z M 799.707031 399.167969 L 799.707031 367.019531 C 799.707031 363.769531 797.082031 361.140625 793.835938 361.140625 L 761.734375 361.140625 C 758.484375 361.140625 755.863281 363.769531 755.863281 367.019531 L 755.863281 399.167969 C 755.863281 402.414062 758.484375 405.046875 761.734375 405.046875 L 793.835938 405.046875 C 797.082031 405.046875 799.707031 402.414062 799.707031 399.167969 Z M 423.390625 456.773438 L 423.390625 424.632812 C 423.390625 421.378906 420.761719 418.753906 417.519531 418.753906 L 385.414062 418.753906 C 382.175781 418.753906 379.546875 421.378906 379.546875 424.632812 L 379.546875 456.773438 C 379.546875 460.027344 382.175781 462.652344 385.414062 462.652344 L 417.519531 462.652344 C 420.761719 462.652344 423.390625 460.027344 423.390625 456.773438 Z M 363.347656 456.773438 L 363.347656 424.632812 C 363.347656 421.378906 360.722656 418.753906 357.476562 418.753906 L 325.371094 418.753906 C 322.132812 418.753906 319.507812 421.378906 319.507812 424.632812 L 319.507812 456.773438 C 319.507812 460.027344 322.132812 462.652344 325.371094 462.652344 L 357.476562 462.652344 C 360.722656 462.652344 363.347656 460.027344 363.347656 456.773438 Z M 423.390625 399.167969 L 423.390625 367.019531 C 423.390625 363.769531 420.761719 361.140625 417.519531 361.140625 L 385.414062 361.140625 C 382.175781 361.140625 379.546875 363.769531 379.546875 367.019531 L 379.546875 399.167969 C 379.546875 402.414062 382.175781 405.046875 385.414062 405.046875 L 417.519531 405.046875 C 420.761719 405.046875 423.390625 402.414062 423.390625 399.167969 Z M 363.347656 399.167969 L 363.347656 367.019531 C 363.347656 363.769531 360.722656 361.140625 357.476562 361.140625 L 325.371094 361.140625 C 322.132812 361.140625 319.507812 363.769531 319.507812 367.019531 L 319.507812 399.167969 C 319.507812 402.414062 322.132812 405.046875 325.371094 405.046875 L 357.476562 405.046875 C 360.722656 405.046875 363.347656 402.414062 363.347656 399.167969 Z M 814.679688 162.402344 L 1167.519531 506.613281 C 1176.984375 515.851562 1170.449219 531.9375 1157.226562 531.9375 L 1086.246094 531.9375 C 1082.410156 531.9375 1078.71875 530.429688 1075.972656 527.746094 L 814.679688 272.851562 C 808.949219 267.277344 799.832031 267.277344 794.101562 272.851562 L 655.363281 408.210938 C 649.425781 413.992188 649.425781 423.550781 655.363281 429.347656 L 734.558594 506.613281 C 744.039062 515.851562 737.507812 531.9375 724.285156 531.9375 L 653.304688 531.9375 C 649.464844 531.9375 645.773438 530.429688 643.019531 527.746094 L 587.917969 473.996094 L 531.3125 418.78125 L 381.734375 272.851562 C 376.007812 267.277344 366.882812 267.277344 361.164062 272.851562 L 99.871094 527.746094 C 97.117188 530.429688 93.425781 531.9375 89.585938 531.9375 L 18.609375 531.9375 C 5.390625 531.9375 -1.144531 515.851562 8.332031 506.613281 L 361.164062 162.402344 C 366.882812 156.8125 376.007812 156.8125 381.734375 162.402344 L 577.636719 353.519531 C 583.355469 359.09375 592.480469 359.09375 598.203125 353.519531 L 794.101562 162.402344 C 799.832031 156.8125 808.949219 156.8125 814.679688 162.402344 " fill-opacity="1" fill-rule="nonzero"/><g fill="#d4c8be" fill-opacity="1"><g transform="translate(467.289631, 798.976401)"><g><path d="M 8.53125 -2.375 L 8.53125 -111.96875 C 8.53125 -114.738281 7.96875 -116.6875 6.84375 -117.8125 C 5.71875 -118.9375 3.769531 -119.5 1 -119.5 C 1 -127.050781 5.234375 -130.828125 13.703125 -130.828125 C 20.710938 -130.828125 24.21875 -126.257812 24.21875 -117.125 L 24.21875 -65.3125 L 42.6875 -65.3125 L 42.6875 -110.375 L 41.890625 -129.03125 C 46.390625 -129.695312 50.820312 -130.03125 55.1875 -130.03125 C 57.300781 -130.03125 58.359375 -128.90625 58.359375 -126.65625 L 58.359375 -16.875 C 58.359375 -14.09375 58.921875 -12.140625 60.046875 -11.015625 C 61.171875 -9.890625 63.125 -9.328125 65.90625 -9.328125 C 65.90625 -1.785156 61.671875 1.984375 53.203125 1.984375 C 46.191406 1.984375 42.6875 -2.582031 42.6875 -11.71875 L 42.6875 -52.203125 L 24.21875 -52.203125 L 24.21875 -18.65625 L 25.015625 0 C 20.515625 0.664062 16.082031 1 11.71875 1 C 9.59375 1 8.53125 -0.125 8.53125 -2.375 Z M 8.53125 -2.375 "/></g></g></g><g fill="#d4c8be" fill-opacity="1"><g transform="translate(534.172354, 798.976401)"><g><path d="M 6.546875 -18.265625 L 6.546875 -109.984375 C 6.546875 -116.597656 8.796875 -121.753906 13.296875 -125.453125 C 17.796875 -129.160156 23.945312 -131.015625 31.75 -131.015625 C 39.5625 -131.015625 45.617188 -129.296875 49.921875 -125.859375 C 54.222656 -122.421875 56.375 -117.390625 56.375 -110.765625 L 56.375 -19.0625 C 56.375 -12.4375 54.09375 -7.269531 49.53125 -3.5625 C 44.96875 0.132812 38.78125 1.984375 30.96875 1.984375 C 23.15625 1.984375 17.128906 0.265625 12.890625 -3.171875 C 8.660156 -6.617188 6.546875 -11.648438 6.546875 -18.265625 Z M 22.234375 -109.984375 L 22.234375 -19.0625 C 22.234375 -16.675781 23.0625 -14.753906 24.71875 -13.296875 C 26.375 -11.835938 28.585938 -11.109375 31.359375 -11.109375 C 34.140625 -11.109375 36.390625 -11.800781 38.109375 -13.1875 C 39.835938 -14.582031 40.703125 -16.539062 40.703125 -19.0625 L 40.703125 -109.984375 C 40.703125 -112.492188 39.835938 -114.441406 38.109375 -115.828125 C 36.390625 -117.222656 34.140625 -117.921875 31.359375 -117.921875 C 28.585938 -117.921875 26.375 -117.222656 24.71875 -115.828125 C 23.0625 -114.441406 22.234375 -112.492188 22.234375 -109.984375 Z M 22.234375 -109.984375 "/></g></g></g><g fill="#d4c8be" fill-opacity="1"><g transform="translate(597.085779, 798.976401)"><g><path d="M 6.15625 -83.171875 L 6.15625 -109.984375 C 6.15625 -116.597656 8.40625 -121.753906 12.90625 -125.453125 C 17.40625 -129.160156 23.457031 -131.015625 31.0625 -131.015625 C 38.675781 -131.015625 44.734375 -129.328125 49.234375 -125.953125 C 53.734375 -122.578125 55.984375 -118.175781 55.984375 -112.75 L 55.984375 -88.140625 C 55.984375 -85.753906 54.257812 -84.097656 50.8125 -83.171875 C 48.96875 -82.648438 47.117188 -82.390625 45.265625 -82.390625 C 43.410156 -82.390625 41.554688 -82.585938 39.703125 -82.984375 C 40.097656 -86.160156 40.296875 -89.535156 40.296875 -93.109375 L 40.296875 -109.984375 C 40.296875 -112.492188 39.4375 -114.441406 37.71875 -115.828125 C 36 -117.222656 33.75 -117.921875 30.96875 -117.921875 C 28.1875 -117.921875 25.96875 -117.222656 24.3125 -115.828125 C 22.664062 -114.441406 21.84375 -112.492188 21.84375 -109.984375 L 21.84375 -86.75 C 21.84375 -82.113281 23.363281 -78.875 26.40625 -77.03125 L 47.4375 -63.53125 C 53.394531 -59.820312 56.375 -54.128906 56.375 -46.453125 L 56.375 -19.0625 C 56.375 -12.4375 54.054688 -7.269531 49.421875 -3.5625 C 44.796875 0.132812 38.675781 1.984375 31.0625 1.984375 C 23.457031 1.984375 17.335938 0.296875 12.703125 -3.078125 C 8.066406 -6.453125 5.75 -10.851562 5.75 -16.28125 L 5.75 -40.890625 C 5.75 -43.273438 7.472656 -44.929688 10.921875 -45.859375 C 12.773438 -46.390625 14.625 -46.65625 16.46875 -46.65625 C 18.320312 -46.65625 20.175781 -46.457031 22.03125 -46.0625 C 21.632812 -42.882812 21.4375 -39.507812 21.4375 -35.9375 L 21.4375 -19.0625 C 21.4375 -16.675781 22.363281 -14.753906 24.21875 -13.296875 C 26.070312 -11.835938 28.382812 -11.109375 31.15625 -11.109375 C 33.9375 -11.109375 36.222656 -11.835938 38.015625 -13.296875 C 39.804688 -14.753906 40.703125 -16.675781 40.703125 -19.0625 L 40.703125 -41.484375 C 40.703125 -46.648438 38.910156 -50.359375 35.328125 -52.609375 L 14.296875 -66.296875 C 8.867188 -69.742188 6.15625 -75.367188 6.15625 -83.171875 Z M 6.15625 -83.171875 "/></g></g></g><g fill="#d4c8be" fill-opacity="1"><g transform="translate(659.403848, 798.976401)"><g><path d="M 34.734375 -115.9375 C 31.160156 -115.9375 27.585938 -114.148438 24.015625 -110.578125 L 24.015625 -18.65625 L 24.8125 0 C 20.3125 0.664062 15.878906 1 11.515625 1 C 9.398438 1 8.34375 -0.125 8.34375 -2.375 L 8.34375 -109.78125 C 8.34375 -112.6875 7.8125 -114.769531 6.75 -116.03125 C 5.6875 -117.289062 3.769531 -117.921875 1 -117.921875 C 0.863281 -121.359375 1.785156 -124.066406 3.765625 -126.046875 C 5.753906 -128.035156 8.929688 -129.03125 13.296875 -129.03125 C 17.671875 -129.03125 20.78125 -126.847656 22.625 -122.484375 C 27.789062 -126.847656 33.085938 -129.03125 38.515625 -129.03125 C 46.585938 -129.03125 52.144531 -126.515625 55.1875 -121.484375 C 60.613281 -126.515625 66.304688 -129.03125 72.265625 -129.03125 C 85.359375 -129.03125 91.90625 -122.546875 91.90625 -109.578125 L 91.90625 -16.875 C 91.90625 -14.09375 92.46875 -12.140625 93.59375 -11.015625 C 94.71875 -9.890625 96.671875 -9.328125 99.453125 -9.328125 C 99.453125 -1.785156 95.21875 1.984375 86.75 1.984375 C 79.738281 1.984375 76.234375 -2.582031 76.234375 -11.71875 L 76.234375 -108.390625 C 76.234375 -113.421875 73.648438 -115.9375 68.484375 -115.9375 C 64.378906 -115.9375 60.941406 -114.28125 58.171875 -110.96875 L 58.171875 -18.65625 L 58.953125 0 C 54.453125 0.664062 50.019531 1 45.65625 1 C 43.539062 1 42.484375 -0.125 42.484375 -2.375 L 42.484375 -108.390625 C 42.484375 -113.421875 39.898438 -115.9375 34.734375 -115.9375 Z M 34.734375 -115.9375 "/></g></g></g><g fill="#d4c8be" fill-opacity="1"><g transform="translate(759.430254, 798.976401)"><g><path d="M 7.140625 -2.375 L 7.140625 -109.984375 C 7.140625 -116.597656 9.390625 -121.753906 13.890625 -125.453125 C 18.390625 -129.160156 24.546875 -131.015625 32.359375 -131.015625 C 40.171875 -131.015625 46.222656 -129.296875 50.515625 -125.859375 C 54.816406 -122.421875 56.96875 -117.390625 56.96875 -110.765625 L 56.96875 -16.875 C 56.96875 -14.09375 57.53125 -12.140625 58.65625 -11.015625 C 59.78125 -9.890625 61.734375 -9.328125 64.515625 -9.328125 C 64.515625 -1.785156 60.28125 1.984375 51.8125 1.984375 C 44.800781 1.984375 41.296875 -2.582031 41.296875 -11.71875 L 41.296875 -49.625 L 22.828125 -49.625 L 22.828125 -18.65625 L 23.625 0 C 19.125 0.664062 14.691406 1 10.328125 1 C 8.203125 1 7.140625 -0.125 7.140625 -2.375 Z M 22.828125 -109.984375 L 22.828125 -62.734375 L 41.296875 -62.734375 L 41.296875 -109.984375 C 41.296875 -112.492188 40.429688 -114.441406 38.703125 -115.828125 C 36.984375 -117.222656 34.734375 -117.921875 31.953125 -117.921875 C 29.179688 -117.921875 26.96875 -117.222656 25.3125 -115.828125 C 23.65625 -114.441406 22.828125 -112.492188 22.828125 -109.984375 Z M 22.828125 -109.984375 "/></g></g></g><g fill="#d4c8be" fill-opacity="1"><g transform="translate(824.328328, 798.976401)"><g><path d="M 34.734375 -115.9375 C 31.160156 -115.9375 27.585938 -114.148438 24.015625 -110.578125 L 24.015625 -18.65625 L 24.8125 0 C 20.3125 0.664062 15.878906 1 11.515625 1 C 9.398438 1 8.34375 -0.125 8.34375 -2.375 L 8.34375 -109.78125 C 8.34375 -112.6875 7.8125 -114.769531 6.75 -116.03125 C 5.6875 -117.289062 3.769531 -117.921875 1 -117.921875 C 0.863281 -121.359375 1.785156 -124.066406 3.765625 -126.046875 C 5.753906 -128.035156 8.929688 -129.03125 13.296875 -129.03125 C 17.671875 -129.03125 20.78125 -126.847656 22.625 -122.484375 C 27.789062 -126.847656 33.085938 -129.03125 38.515625 -129.03125 C 51.617188 -129.03125 58.171875 -122.546875 58.171875 -109.578125 L 58.171875 -16.875 C 58.171875 -14.09375 58.734375 -12.140625 59.859375 -11.015625 C 60.984375 -9.890625 62.929688 -9.328125 65.703125 -9.328125 C 65.703125 -1.785156 61.46875 1.984375 53 1.984375 C 45.988281 1.984375 42.484375 -2.582031 42.484375 -11.71875 L 42.484375 -108.390625 C 42.484375 -113.421875 39.898438 -115.9375 34.734375 -115.9375 Z M 34.734375 -115.9375 "/></g></g></g></svg>