<svg xmlns="http://www.w3.org/2000/svg" xmlns:xlink="http://www.w3.org/1999/xlink" width="729" zoomAndPan="magnify" viewBox="0 0 546.75 302.250004" height="403" preserveAspectRatio="xMidYMid meet" version="1.0"><defs><g/><clipPath id="1f1fdfc155"><path d="M 58 11.621094 L 520.992188 11.621094 L 520.992188 180 L 58 180 Z M 58 11.621094 " clip-rule="nonzero"/></clipPath></defs><g clip-path="url(#1f1fdfc155)"><path fill="#c6ffad" d="M 425.398438 158.402344 C 426.421875 151.9375 429.695312 133.515625 434.828125 126.015625 C 434.828125 126.015625 436.558594 133.117188 430.191406 159.328125 C 430.019531 160.03125 430.859375 160.535156 431.394531 160.050781 C 457.953125 135.875 437.652344 108.769531 437.652344 108.769531 C 437.652344 108.769531 408.597656 126.136719 424.015625 158.601562 C 424.324219 159.25 425.285156 159.113281 425.398438 158.402344 Z M 439.3125 168.511719 C 449.296875 162.925781 478.15625 147.496094 494.019531 146.449219 C 494.019531 146.449219 486.132812 156.519531 443.222656 176.125 C 442.074219 176.652344 442.292969 178.351562 443.539062 178.558594 C 505.503906 188.96875 520.765625 131.675781 520.765625 131.675781 C 520.765625 131.675781 465.453125 110.441406 437.539062 166.824219 C 436.984375 167.949219 438.214844 169.128906 439.3125 168.511719 Z M 155.269531 61.464844 C 170.683594 29 141.628906 11.636719 141.628906 11.636719 C 141.628906 11.636719 121.332031 38.738281 147.886719 62.910156 C 148.421875 63.394531 149.261719 62.898438 149.089844 62.195312 C 142.722656 35.980469 144.453125 28.878906 144.453125 28.878906 C 149.585938 36.378906 152.859375 54.800781 153.882812 61.261719 C 153.996094 61.972656 154.957031 62.113281 155.269531 61.464844 Z M 139.96875 71.378906 C 129.984375 65.792969 101.128906 50.355469 85.265625 49.3125 C 85.265625 49.3125 93.148438 59.378906 136.058594 78.984375 C 137.210938 79.511719 136.988281 81.210938 135.742188 81.417969 C 73.78125 91.832031 58.515625 34.53125 58.515625 34.53125 C 58.515625 34.53125 113.828125 13.308594 141.742188 69.6875 C 142.300781 70.816406 141.066406 71.988281 139.96875 71.378906 " fill-opacity="1" fill-rule="nonzero"/></g><path fill="#d4c8be" d="M 332.597656 161.242188 L 332.597656 150.710938 C 332.597656 149.648438 331.730469 148.785156 330.671875 148.785156 L 320.15625 148.785156 C 319.09375 148.785156 318.234375 149.648438 318.234375 150.710938 L 318.234375 161.242188 C 318.234375 162.308594 319.09375 163.167969 320.15625 163.167969 L 330.671875 163.167969 C 331.730469 163.167969 332.597656 162.308594 332.597656 161.242188 Z M 312.925781 161.242188 L 312.925781 150.710938 C 312.925781 149.648438 312.066406 148.785156 311.003906 148.785156 L 300.488281 148.785156 C 299.421875 148.785156 298.5625 149.648438 298.5625 150.710938 L 298.5625 161.242188 C 298.5625 162.308594 299.421875 163.167969 300.488281 163.167969 L 311.003906 163.167969 C 312.066406 163.167969 312.925781 162.308594 312.925781 161.242188 Z M 332.597656 142.371094 L 332.597656 131.839844 C 332.597656 130.777344 331.730469 129.914062 330.671875 129.914062 L 320.15625 129.914062 C 319.09375 129.914062 318.234375 130.777344 318.234375 131.839844 L 318.234375 142.371094 C 318.234375 143.433594 319.09375 144.296875 320.15625 144.296875 L 330.671875 144.296875 C 331.730469 144.296875 332.597656 143.433594 332.597656 142.371094 Z M 312.925781 142.371094 L 312.925781 131.839844 C 312.925781 130.777344 312.066406 129.914062 311.003906 129.914062 L 300.488281 129.914062 C 299.421875 129.914062 298.5625 130.777344 298.5625 131.839844 L 298.5625 142.371094 C 298.5625 143.433594 299.421875 144.296875 300.488281 144.296875 L 311.003906 144.296875 C 312.066406 144.296875 312.925781 143.433594 312.925781 142.371094 Z M 189.660156 161.242188 L 189.660156 150.710938 C 189.660156 149.648438 188.800781 148.785156 187.738281 148.785156 L 177.21875 148.785156 C 176.160156 148.785156 175.300781 149.648438 175.300781 150.710938 L 175.300781 161.242188 C 175.300781 162.308594 176.160156 163.167969 177.21875 163.167969 L 187.738281 163.167969 C 188.800781 163.167969 189.660156 162.308594 189.660156 161.242188 Z M 169.992188 161.242188 L 169.992188 150.710938 C 169.992188 149.648438 169.132812 148.785156 168.070312 148.785156 L 157.554688 148.785156 C 156.492188 148.785156 155.632812 149.648438 155.632812 150.710938 L 155.632812 161.242188 C 155.632812 162.308594 156.492188 163.167969 157.554688 163.167969 L 168.070312 163.167969 C 169.132812 163.167969 169.992188 162.308594 169.992188 161.242188 Z M 189.660156 142.371094 L 189.660156 131.839844 C 189.660156 130.777344 188.800781 129.914062 187.738281 129.914062 L 177.21875 129.914062 C 176.160156 129.914062 175.300781 130.777344 175.300781 131.839844 L 175.300781 142.371094 C 175.300781 143.433594 176.160156 144.296875 177.21875 144.296875 L 187.738281 144.296875 C 188.800781 144.296875 189.660156 143.433594 189.660156 142.371094 Z M 169.992188 142.371094 L 169.992188 131.839844 C 169.992188 130.777344 169.132812 129.914062 168.070312 129.914062 L 157.554688 129.914062 C 156.492188 129.914062 155.632812 130.777344 155.632812 131.839844 L 155.632812 142.371094 C 155.632812 143.433594 156.492188 144.296875 157.554688 144.296875 L 168.070312 144.296875 C 169.132812 144.296875 169.992188 143.433594 169.992188 142.371094 Z M 317.828125 64.816406 L 433.40625 177.566406 C 436.503906 180.59375 434.363281 185.863281 430.035156 185.863281 L 406.785156 185.863281 C 405.527344 185.863281 404.316406 185.367188 403.417969 184.488281 L 317.828125 100.996094 C 315.953125 99.167969 312.964844 99.167969 311.089844 100.996094 L 265.644531 145.332031 C 263.699219 147.226562 263.699219 150.359375 265.644531 152.257812 L 291.585938 177.566406 C 294.691406 180.59375 292.550781 185.863281 288.21875 185.863281 L 264.96875 185.863281 C 263.710938 185.863281 262.503906 185.367188 261.601562 184.488281 L 243.550781 166.882812 L 225.011719 148.796875 L 176.015625 100.996094 C 174.140625 99.167969 171.152344 99.167969 169.277344 100.996094 L 83.6875 184.488281 C 82.789062 185.367188 81.578125 185.863281 80.320312 185.863281 L 57.070312 185.863281 C 52.742188 185.863281 50.601562 180.59375 53.703125 177.566406 L 169.277344 64.816406 C 171.152344 62.988281 174.140625 62.988281 176.015625 64.816406 L 240.183594 127.417969 C 242.058594 129.246094 245.046875 129.246094 246.921875 127.417969 L 311.089844 64.816406 C 312.964844 62.988281 315.953125 62.988281 317.828125 64.816406 " fill-opacity="1" fill-rule="nonzero"/><g fill="#d4c8be" fill-opacity="1"><g transform="translate(204.039572, 273.331603)"><g><path d="M 2.796875 -0.78125 L 2.796875 -36.671875 C 2.796875 -37.585938 2.609375 -38.226562 2.234375 -38.59375 C 1.867188 -38.96875 1.234375 -39.15625 0.328125 -39.15625 C 0.328125 -41.625 1.710938 -42.859375 4.484375 -42.859375 C 6.785156 -42.859375 7.9375 -41.363281 7.9375 -38.375 L 7.9375 -21.390625 L 13.984375 -21.390625 L 13.984375 -36.15625 L 13.71875 -42.265625 C 15.195312 -42.484375 16.648438 -42.59375 18.078125 -42.59375 C 18.773438 -42.59375 19.125 -42.222656 19.125 -41.484375 L 19.125 -5.53125 C 19.125 -4.613281 19.304688 -3.972656 19.671875 -3.609375 C 20.035156 -3.242188 20.675781 -3.0625 21.59375 -3.0625 C 21.59375 -0.582031 20.203125 0.65625 17.421875 0.65625 C 15.128906 0.65625 13.984375 -0.84375 13.984375 -3.84375 L 13.984375 -17.109375 L 7.9375 -17.109375 L 7.9375 -6.109375 L 8.1875 0 C 6.71875 0.21875 5.269531 0.328125 3.84375 0.328125 C 3.144531 0.328125 2.796875 -0.0390625 2.796875 -0.78125 Z M 2.796875 -0.78125 "/></g></g></g><g fill="#d4c8be" fill-opacity="1"><g transform="translate(225.947485, 273.331603)"><g><path d="M 2.140625 -5.984375 L 2.140625 -36.03125 C 2.140625 -38.195312 2.875 -39.882812 4.34375 -41.09375 C 5.820312 -42.3125 7.835938 -42.921875 10.390625 -42.921875 C 12.953125 -42.921875 14.9375 -42.351562 16.34375 -41.21875 C 17.757812 -40.09375 18.46875 -38.445312 18.46875 -36.28125 L 18.46875 -6.25 C 18.46875 -4.070312 17.71875 -2.375 16.21875 -1.15625 C 14.726562 0.0507812 12.703125 0.65625 10.140625 0.65625 C 7.585938 0.65625 5.613281 0.09375 4.21875 -1.03125 C 2.832031 -2.164062 2.140625 -3.816406 2.140625 -5.984375 Z M 7.28125 -36.03125 L 7.28125 -6.25 C 7.28125 -5.46875 7.550781 -4.835938 8.09375 -4.359375 C 8.632812 -3.878906 9.359375 -3.640625 10.265625 -3.640625 C 11.179688 -3.640625 11.921875 -3.863281 12.484375 -4.3125 C 13.046875 -4.769531 13.328125 -5.414062 13.328125 -6.25 L 13.328125 -36.03125 C 13.328125 -36.851562 13.046875 -37.488281 12.484375 -37.9375 C 11.921875 -38.394531 11.179688 -38.625 10.265625 -38.625 C 9.359375 -38.625 8.632812 -38.394531 8.09375 -37.9375 C 7.550781 -37.488281 7.28125 -36.851562 7.28125 -36.03125 Z M 7.28125 -36.03125 "/></g></g></g><g fill="#d4c8be" fill-opacity="1"><g transform="translate(246.555225, 273.331603)"><g><path d="M 2.015625 -27.25 L 2.015625 -36.03125 C 2.015625 -38.195312 2.75 -39.882812 4.21875 -41.09375 C 5.695312 -42.3125 7.679688 -42.921875 10.171875 -42.921875 C 12.671875 -42.921875 14.65625 -42.367188 16.125 -41.265625 C 17.601562 -40.160156 18.34375 -38.71875 18.34375 -36.9375 L 18.34375 -28.875 C 18.34375 -28.09375 17.773438 -27.550781 16.640625 -27.25 C 16.035156 -27.070312 15.429688 -26.984375 14.828125 -26.984375 C 14.222656 -26.984375 13.613281 -27.050781 13 -27.1875 C 13.132812 -28.226562 13.203125 -29.332031 13.203125 -30.5 L 13.203125 -36.03125 C 13.203125 -36.851562 12.921875 -37.488281 12.359375 -37.9375 C 11.796875 -38.394531 11.054688 -38.625 10.140625 -38.625 C 9.234375 -38.625 8.507812 -38.394531 7.96875 -37.9375 C 7.425781 -37.488281 7.15625 -36.851562 7.15625 -36.03125 L 7.15625 -28.421875 C 7.15625 -26.898438 7.65625 -25.835938 8.65625 -25.234375 L 15.546875 -20.8125 C 17.492188 -19.59375 18.46875 -17.726562 18.46875 -15.21875 L 18.46875 -6.25 C 18.46875 -4.070312 17.707031 -2.375 16.1875 -1.15625 C 14.675781 0.0507812 12.671875 0.65625 10.171875 0.65625 C 7.679688 0.65625 5.675781 0.101562 4.15625 -1 C 2.644531 -2.113281 1.890625 -3.554688 1.890625 -5.328125 L 1.890625 -13.390625 C 1.890625 -14.171875 2.453125 -14.710938 3.578125 -15.015625 C 4.179688 -15.191406 4.785156 -15.28125 5.390625 -15.28125 C 6.003906 -15.28125 6.613281 -15.21875 7.21875 -15.09375 C 7.082031 -14.050781 7.015625 -12.941406 7.015625 -11.765625 L 7.015625 -6.25 C 7.015625 -5.46875 7.316406 -4.835938 7.921875 -4.359375 C 8.535156 -3.878906 9.296875 -3.640625 10.203125 -3.640625 C 11.117188 -3.640625 11.867188 -3.878906 12.453125 -4.359375 C 13.035156 -4.835938 13.328125 -5.46875 13.328125 -6.25 L 13.328125 -13.59375 C 13.328125 -15.28125 12.742188 -16.492188 11.578125 -17.234375 L 4.6875 -21.71875 C 2.90625 -22.84375 2.015625 -24.6875 2.015625 -27.25 Z M 2.015625 -27.25 "/></g></g></g><g fill="#d4c8be" fill-opacity="1"><g transform="translate(266.967953, 273.331603)"><g><path d="M 11.375 -37.984375 C 10.207031 -37.984375 9.039062 -37.394531 7.875 -36.21875 L 7.875 -6.109375 L 8.125 0 C 6.65625 0.21875 5.203125 0.328125 3.765625 0.328125 C 3.078125 0.328125 2.734375 -0.0390625 2.734375 -0.78125 L 2.734375 -35.96875 C 2.734375 -36.914062 2.554688 -37.59375 2.203125 -38 C 1.859375 -38.414062 1.234375 -38.625 0.328125 -38.625 C 0.285156 -39.75 0.585938 -40.632812 1.234375 -41.28125 C 1.890625 -41.9375 2.929688 -42.265625 4.359375 -42.265625 C 5.785156 -42.265625 6.800781 -41.550781 7.40625 -40.125 C 9.101562 -41.550781 10.835938 -42.265625 12.609375 -42.265625 C 15.253906 -42.265625 17.078125 -41.441406 18.078125 -39.796875 C 19.859375 -41.441406 21.722656 -42.265625 23.671875 -42.265625 C 27.960938 -42.265625 30.109375 -40.140625 30.109375 -35.890625 L 30.109375 -5.53125 C 30.109375 -4.613281 30.289062 -3.972656 30.65625 -3.609375 C 31.03125 -3.242188 31.671875 -3.0625 32.578125 -3.0625 C 32.578125 -0.582031 31.191406 0.65625 28.421875 0.65625 C 26.117188 0.65625 24.96875 -0.84375 24.96875 -3.84375 L 24.96875 -35.5 C 24.96875 -37.15625 24.125 -37.984375 22.4375 -37.984375 C 21.09375 -37.984375 19.960938 -37.441406 19.046875 -36.359375 L 19.046875 -6.109375 L 19.3125 0 C 17.84375 0.21875 16.390625 0.328125 14.953125 0.328125 C 14.265625 0.328125 13.921875 -0.0390625 13.921875 -0.78125 L 13.921875 -35.5 C 13.921875 -37.15625 13.070312 -37.984375 11.375 -37.984375 Z M 11.375 -37.984375 "/></g></g></g><g fill="#d4c8be" fill-opacity="1"><g transform="translate(299.732315, 273.331603)"><g><path d="M 2.34375 -0.78125 L 2.34375 -36.03125 C 2.34375 -38.195312 3.078125 -39.882812 4.546875 -41.09375 C 6.023438 -42.3125 8.039062 -42.921875 10.59375 -42.921875 C 13.15625 -42.921875 15.140625 -42.351562 16.546875 -41.21875 C 17.953125 -40.09375 18.65625 -38.445312 18.65625 -36.28125 L 18.65625 -5.53125 C 18.65625 -4.613281 18.835938 -3.972656 19.203125 -3.609375 C 19.578125 -3.242188 20.222656 -3.0625 21.140625 -3.0625 C 21.140625 -0.582031 19.75 0.65625 16.96875 0.65625 C 14.675781 0.65625 13.53125 -0.84375 13.53125 -3.84375 L 13.53125 -16.265625 L 7.484375 -16.265625 L 7.484375 -6.109375 L 7.734375 0 C 6.265625 0.21875 4.8125 0.328125 3.375 0.328125 C 2.6875 0.328125 2.34375 -0.0390625 2.34375 -0.78125 Z M 7.484375 -36.03125 L 7.484375 -20.546875 L 13.53125 -20.546875 L 13.53125 -36.03125 C 13.53125 -36.851562 13.242188 -37.488281 12.671875 -37.9375 C 12.109375 -38.394531 11.375 -38.625 10.46875 -38.625 C 9.5625 -38.625 8.835938 -38.394531 8.296875 -37.9375 C 7.753906 -37.488281 7.484375 -36.851562 7.484375 -36.03125 Z M 7.484375 -36.03125 "/></g></g></g><g fill="#d4c8be" fill-opacity="1"><g transform="translate(320.990142, 273.331603)"><g><path d="M 11.375 -37.984375 C 10.207031 -37.984375 9.039062 -37.394531 7.875 -36.21875 L 7.875 -6.109375 L 8.125 0 C 6.65625 0.21875 5.203125 0.328125 3.765625 0.328125 C 3.078125 0.328125 2.734375 -0.0390625 2.734375 -0.78125 L 2.734375 -35.96875 C 2.734375 -36.914062 2.554688 -37.59375 2.203125 -38 C 1.859375 -38.414062 1.234375 -38.625 0.328125 -38.625 C 0.285156 -39.75 0.585938 -40.632812 1.234375 -41.28125 C 1.890625 -41.9375 2.929688 -42.265625 4.359375 -42.265625 C 5.785156 -42.265625 6.800781 -41.550781 7.40625 -40.125 C 9.101562 -41.550781 10.835938 -42.265625 12.609375 -42.265625 C 16.898438 -42.265625 19.046875 -40.140625 19.046875 -35.890625 L 19.046875 -5.53125 C 19.046875 -4.613281 19.226562 -3.972656 19.59375 -3.609375 C 19.96875 -3.242188 20.613281 -3.0625 21.53125 -3.0625 C 21.53125 -0.582031 20.140625 0.65625 17.359375 0.65625 C 15.066406 0.65625 13.921875 -0.84375 13.921875 -3.84375 L 13.921875 -35.5 C 13.921875 -37.15625 13.070312 -37.984375 11.375 -37.984375 Z M 11.375 -37.984375 "/></g></g></g></svg>